<?xml version="1.0" encoding="utf-8"?>
<!-- Generator: Adobe Illustrator 24.0.0, SVG Export Plug-In . SVG Version: 6.00 Build 0)  -->
<svg width="32" height="32" version="1.1" id="instagram" xmlns="http://www.w3.org/2000/svg" xmlns:xlink="http://www.w3.org/1999/xlink" x="0px" y="0px"
	 viewBox="0 0 12.5 12.5" style="enable-background:new 0 0 12.5 12.5;" xml:space="preserve">
<style type="text/css">
	.st0{fill:url(#SVGID_1_);}
	.st1{fill:#FFFFFF;}
</style>
<radialGradient id="SVGID_1_" cx="-118.8276" cy="-601.7749" r="17.64" fx="-126.2292" fy="-601.7749" gradientTransform="matrix(0.6534 -0.757 -0.6132 -0.5293 -285.8403 -402.2754)" gradientUnits="userSpaceOnUse">
	<stop  offset="0" style="stop-color:#FBEA13"/>
	<stop  offset="6.000000e-02" style="stop-color:#F9D61F"/>
	<stop  offset="0.18" style="stop-color:#F3A23E"/>
	<stop  offset="0.35" style="stop-color:#EB506F"/>
	<stop  offset="0.4" style="stop-color:#E8387D"/>
	<stop  offset="0.49" style="stop-color:#C53C83"/>
	<stop  offset="0.67" style="stop-color:#82448E"/>
	<stop  offset="0.82" style="stop-color:#514A97"/>
	<stop  offset="0.94" style="stop-color:#334E9C"/>
	<stop  offset="1" style="stop-color:#284F9E"/>
</radialGradient>
<path class="st0" d="M12.5,6.2c0,3.4-2.8,6.2-6.2,6.2C2.8,12.5,0,9.7,0,6.2C0,2.8,2.8,0,6.2,0c0,0,0,0,0,0C9.7,0,12.5,2.8,12.5,6.2z
	"/>
<path class="st1" d="M8,10.4H4.6c-1.5,0-2.7-1.2-2.7-2.7l0,0v-3C1.9,3.2,3.1,2,4.6,2l0,0H8c1.5,0,2.7,1.2,2.7,2.7l0,0v3
	C10.7,9.2,9.5,10.4,8,10.4L8,10.4z M4.6,2.6c-1.2,0-2.1,0.9-2.1,2.1v3c0,1.2,0.9,2.1,2.1,2.1H8c1.2,0,2.1-0.9,2.1-2.1v-3
	c0-1.2-0.9-2.1-2.1-2.1H4.6z"/>
<path class="st1" d="M6.2,8.7c-1.3,0-2.4-1.1-2.4-2.4s1.1-2.4,2.4-2.4c1.3,0,2.4,1.1,2.4,2.4S7.6,8.7,6.2,8.7L6.2,8.7z M6.2,4.4
	c-1,0-1.8,0.8-1.8,1.8c0,1,0.8,1.8,1.8,1.8c1,0,1.8-0.8,1.8-1.8C8.1,5.2,7.2,4.4,6.2,4.4z"/>
<path class="st1" d="M9.1,3.9c0,0.3-0.2,0.5-0.5,0.5S8.1,4.2,8.1,3.9s0.2-0.5,0.5-0.5c0,0,0,0,0,0C8.9,3.4,9.1,3.6,9.1,3.9z"/>
</svg>
