<?xml version="1.0" encoding="utf-8"?>
<!-- Generator: Adobe Illustrator 24.0.0, SVG Export Plug-In . SVG Version: 6.00 Build 0)  -->
<svg width="32" height="32" version="1.1" id="linkedin" xmlns="http://www.w3.org/2000/svg" xmlns:xlink="http://www.w3.org/1999/xlink" x="0px" y="0px"
	 viewBox="0 0 12.5 12.5" style="enable-background:new 0 0 12.5 12.5;" xml:space="preserve">
<style type="text/css">
	.st0{fill:#2C68B1;}
	.st1{fill:#FFFFFF;}
</style>
<circle class="st0" cx="6.2" cy="6.2" r="6.2"/>
<path class="st1" d="M6.7,5.4C6.8,5.3,6.9,5.2,7,5.1c0.3-0.3,0.7-0.5,1.1-0.5c0.2,0,0.5,0,0.7,0.1c0.5,0.1,0.9,0.5,1,1.1
	C10,6.1,10,6.6,10,7c0,0.9,0,1.7,0,2.6c0,0.1,0,0.1-0.1,0.1H8.6c-0.1,0-0.1,0-0.1-0.1c0-0.8,0-1.6,0-2.5c0-0.2,0-0.4-0.1-0.6
	C8.3,6.1,8,5.9,7.7,6c-0.5,0-0.8,0.3-0.9,0.8c0,0,0,0,0,0.1c0,0.1,0,0.3,0,0.4v2.4c0,0.1,0,0.1-0.1,0.1H5.4c-0.1,0-0.1,0-0.1-0.1
	c0-1.6,0-3.2,0-4.7c0-0.1,0-0.1,0.1-0.1h1.3c0.1,0,0.1,0,0.1,0.1L6.7,5.4z"/>
<path class="st1" d="M4.3,7.2v2.4c0,0.1,0,0.1-0.1,0.1c-0.4,0-0.9,0-1.3,0c-0.1,0-0.1,0-0.1-0.1V4.8c0-0.1,0-0.1,0.1-0.1h1.4
	c0.1,0,0.1,0,0.1,0.1L4.3,7.2z"/>
<path class="st1" d="M4.4,3.2C4.4,3.7,4,4,3.5,4C3,4,2.6,3.7,2.6,3.2c0-0.5,0.4-0.9,0.9-0.9c0,0,0,0,0,0C4,2.3,4.4,2.7,4.4,3.2z"/>
</svg>
