<?xml version="1.0" encoding="utf-8"?>
<!-- Generator: Adobe Illustrator 24.0.0, SVG Export Plug-In . SVG Version: 6.00 Build 0)  -->
<svg width="103.2" height="99.2" version="1.1" id="open-pdf" xmlns="http://www.w3.org/2000/svg" xmlns:xlink="http://www.w3.org/1999/xlink" x="0px" y="0px"
	 viewBox="0 0 103.2 99.2" style="enable-background:new 0 0 103.2 99.2;" xml:space="preserve">
<style type="text/css">
	.st0{fill:#FFFFFF;stroke:#ED0132;stroke-width:3.06;stroke-miterlimit:10;}
	.st1{fill:#FFFFFF;}
	.st2{fill:#ED0132;}
	.st3{fill:#ED0132;stroke:#ED0132;stroke-width:1.16;stroke-miterlimit:10;}
	.st4{fill:#FEFFFD;}
	.st5{fill:#ED0132;stroke:#ED0132;stroke-width:2;stroke-miterlimit:10;}
	.st6{fill:url(#SVGID_1_);}
</style>
<g id="logo-area">
	<path class="st0" d="M88.3,20.8L88.3,20.8c-0.1-1.8-0.9-3.6-2.2-4.8l0,0L73.9,3.8l0,0c-1.3-1.5-3.2-2.3-5.1-2.3H26
		c-4.3,0-7.7,3.4-7.7,7.7l0,0v71.3c0,4.3,3.4,7.7,7.7,7.7l0,0h54.6c4.3,0,7.7-3.4,7.7-7.7l0,0C88.3,80.5,88.3,20.8,88.3,20.8z"/>
	<path class="st1" d="M51.3,21.4c1,0,1.8,1.5,1.9,1.7c0.6,1.2,0.7,2.5,0.4,3.8c-3.6,18.5-16.2,36-16.2,36c-1.6,2.3-4.3,5.9-6,5.4
		c-1-0.3-1.5-1.9-1.5-3.2c0.1-5,9.6-8.6,14.6-10.5c6.8-2.6,11.9-3,20.2-3.8c12-1.1,13.9,0.6,14.4,1.7c0.4,0.7,0.3,1.6-0.1,2.3
		c-1.5,2-8.1-0.4-11.7-2.1c-11-5.4-15.1-15.8-17-20.7c-0.3-0.7-2.2-5.9-0.5-9.1C49.9,22.5,50.5,21.5,51.3,21.4z"/>
	<path class="st2" d="M51.3,20.5c0.8,0,1.5,0.4,1.9,1c0.3,0.5,0.6,0.9,0.8,1.5c0.3,1,0.5,2.1,0.4,3.2c0,0.5-0.1,1-0.3,1.5L53.8,29
		l-0.3,1.4l-0.4,1.4c-1,3.8-2.2,7.5-3.7,11.1c-1.5,3.6-3.1,7.1-5,10.6c-0.9,1.7-1.9,3.4-2.9,5.1c-0.5,0.8-1,1.7-1.5,2.5l-0.8,1.2
		l-0.4,0.6c-0.1,0.2-0.3,0.4-0.5,0.7l0.1-0.1c-0.7,1-1.5,2.1-2.4,3.1c-0.4,0.5-0.9,1-1.4,1.4c-0.6,0.5-1.3,0.9-2,1.2
		c-0.5,0.2-1,0.2-1.5,0s-0.9-0.5-1.2-0.9c-0.4-0.7-0.7-1.4-0.8-2.2c-0.1-0.8,0-1.5,0.2-2.2c0.1-0.4,0.3-0.7,0.4-1l0.6-0.9
		c0.8-1.1,1.9-2,3-2.7s2.2-1.4,3.4-1.9c2.3-1.1,4.7-2,7-2.9c2.4-0.9,4.8-1.7,7.3-2.3s5-1,7.5-1.3s5-0.5,7.5-0.7s5.1-0.3,7.6-0.2
		c1.3,0,2.6,0.2,3.9,0.6c0.7,0.2,1.3,0.6,1.8,1.2c0.5,0.6,0.7,1.4,0.6,2.1c0,0.4-0.1,0.8-0.3,1.1c-0.2,0.3-0.5,0.6-0.9,0.8
		c-0.7,0.3-1.4,0.4-2.1,0.4c-1.3,0-2.6-0.2-3.9-0.6C65,53.8,58.4,49,54.2,42.4c-1.4-2.2-2.5-4.5-3.5-6.9c-0.5-1.2-0.9-2.4-1.3-3.6
		c-0.4-1.2-0.7-2.5-0.9-3.8s-0.2-2.7,0.1-4c0.1-0.7,0.3-1.4,0.7-2c0.2-0.4,0.4-0.7,0.7-1C50.3,20.8,50.8,20.5,51.3,20.5z M51.4,22.3
		c0,0-0.4,0.2-0.7,0.7c-0.3,0.4-0.6,0.9-0.7,1.5c-0.3,1.1-0.3,2.3,0,3.5c0.2,1.2,0.5,2.3,1,3.5c0.5,1.1,1,2.3,1.5,3.4
		c2.1,4.4,4.9,8.5,8.3,12c3.5,3.4,7.7,6,12.4,7.5c1.1,0.4,2.3,0.7,3.5,0.8c1.1,0.1,2.4-0.1,2.3-1.2c0-0.5-0.2-1-0.5-1.4
		c-0.4-0.3-0.9-0.5-1.4-0.7c-1.2-0.3-2.4-0.5-3.5-0.5c-5-0.1-10,0.2-14.9,0.8c-2.5,0.2-4.9,0.6-7.4,1.1c-2.4,0.5-4.8,1.3-7.1,2.2
		s-4.6,1.9-6.8,3.1c-2.1,1.1-4,2.6-5.5,4.5C31.3,63.9,31,65,31.2,66c0.1,0.5,0.2,0.9,0.5,1.3c0.1,0.1,0.2,0.2,0.3,0.2s0.2,0,0.3,0
		c0.4-0.2,0.9-0.4,1.2-0.8c0.4-0.4,0.8-0.8,1.2-1.3c0.8-0.9,1.5-1.9,2.2-2.9l0.1-0.1l1.5-2.3c0.5-0.8,1-1.6,1.5-2.4
		c1-1.6,2-3.3,2.9-5c1.9-3.4,3.6-6.8,5.2-10.3c1.6-3.5,2.9-7.1,4-10.8l0.4-1.4l0.3-1.4l0.3-1.4c0.1-0.4,0.2-0.9,0.2-1.4
		c0.1-0.9-0.1-1.7-0.5-2.5c-0.2-0.4-0.5-0.7-0.8-1C51.7,22.3,51.4,22.2,51.4,22.3L51.4,22.3z"/>
</g>
<g id="abbr">
	<path class="st3" d="M0.6,29V12.5c0-1.4,1.1-2.5,2.5-2.5h35.2c1.4,0,2.5,1.1,2.5,2.5V29c0,1.4-1.1,2.5-2.5,2.5H3.1
		C1.7,31.6,0.6,30.4,0.6,29z"/>
	<path class="st4" d="M9.5,22.1v4H7.7V15.5h4.1c1-0.1,2,0.3,2.8,0.9c0.7,0.6,1.1,1.5,1,2.5c0.1,0.9-0.3,1.8-1,2.4
		c-0.8,0.6-1.8,0.9-2.9,0.9L9.5,22.1z M9.5,20.7h2.2c0.5,0,1.1-0.1,1.5-0.5c0.4-0.3,0.6-0.8,0.5-1.3c0-0.5-0.2-1-0.5-1.4
		c-0.4-0.4-0.9-0.6-1.5-0.5H9.5V20.7z"/>
	<path class="st4" d="M17.2,26.1V15.5h3.1c0.9,0,1.7,0.2,2.5,0.6c0.7,0.4,1.3,1,1.7,1.8c0.4,0.8,0.6,1.7,0.6,2.6V21
		c0,0.9-0.2,1.8-0.6,2.7c-0.4,0.7-1,1.4-1.7,1.8c-0.8,0.4-1.7,0.6-2.6,0.6H17.2z M19.1,16.9v7.7h1.2c0.8,0,1.7-0.3,2.2-0.9
		c0.6-0.8,0.8-1.7,0.8-2.6v-0.6c0.1-0.9-0.2-1.9-0.8-2.6c-0.5-0.6-1.4-1-2.2-0.9L19.1,16.9z"/>
	<path class="st4" d="M33.2,21.6h-4.3v4.5H27V15.5h6.8V17h-4.9v3.2h4.3V21.6z"/>
</g>
<g>
	<path class="st5" d="M88.9,84.9c-1.2,1.2-2.6,2.1-4.1,2.8c-1.6,0.7-3.3,1-5,1s-3.4-0.3-5-1c-1.5-0.6-2.9-1.6-4.1-2.8
		c-1.2-1.2-2.1-2.6-2.8-4.1c-0.7-1.6-1-3.3-1-5c0-1.7,0.3-3.4,1-5c0.6-1.5,1.6-2.9,2.8-4.1c1.2-1.2,2.6-2.1,4.1-2.8
		c1.6-0.7,3.3-1,5-1c1.7,0,3.4,0.3,5,1c1.5,0.6,2.9,1.6,4.1,2.8c1.2,1.2,2.1,2.6,2.8,4.1c0.7,1.6,1,3.3,1,5s-0.3,3.4-1,5
		C91.1,82.4,90.1,83.8,88.9,84.9z M72.7,68.7c-1.8,1.8-3,4.3-3,7.1c0,5.6,4.5,10.1,10.1,10.1c5.6,0,10.1-4.5,10.1-10.1
		c0-5.6-4.5-10.1-10.1-10.1C77,65.7,74.5,66.9,72.7,68.7z"/>
	<path class="st2" d="M90.6,90.6l7.9,7.9c0.8,0.8,2.2,0.8,3,0l1-1c0.8-0.8,0.8-2.2,0-3l-7.9-7.9c-0.8-0.8-2.2-0.8-3,0l-1,1
		C89.7,88.4,89.7,89.8,90.6,90.6z"/>
	
		<rect x="86.4" y="84.7" transform="matrix(-0.7071 -0.7071 0.7071 -0.7071 93.2667 211.5084)" class="st2" width="8" height="3.5"/>
	
		<radialGradient id="SVGID_1_" cx="85.8782" cy="71.3133" r="10.7411" gradientTransform="matrix(0.7071 -0.7071 0.7071 0.7071 -31.3248 86.1253)" gradientUnits="userSpaceOnUse">
		<stop  offset="0" style="stop-color:#69C3CC"/>
		<stop  offset="0.2826" style="stop-color:#6BC4CD"/>
		<stop  offset="0.4436" style="stop-color:#74C7D0"/>
		<stop  offset="0.5741" style="stop-color:#82CDD4"/>
		<stop  offset="0.6882" style="stop-color:#95D5DB"/>
		<stop  offset="0.7916" style="stop-color:#AFDFE4"/>
		<stop  offset="0.8873" style="stop-color:#CFECEF"/>
		<stop  offset="0.9753" style="stop-color:#F3FAFB"/>
		<stop  offset="1" style="stop-color:#FFFFFF"/>
	</radialGradient>
	<circle class="st6" cx="79.8" cy="75.8" r="10.7"/>
</g>
</svg>
