<?xml version="1.0" encoding="utf-8"?>
<!-- Generator: Adobe Illustrator 24.0.0, SVG Export Plug-In . SVG Version: 6.00 Build 0)  -->
<svg width="32" height="32" version="1.1" id="rabota" xmlns="http://www.w3.org/2000/svg" xmlns:xlink="http://www.w3.org/1999/xlink" x="0px" y="0px"
	 viewBox="0 0 56.3 56.3" style="enable-background:new 0 0 56.3 56.4;" xml:space="preserve">
<style type="text/css">
	.st0{fill:#E80200;}
	.st1{fill:#FFFFFF;}
</style>
<path class="st0" d="M28.2,0L28.2,0c15.6,0,28.2,12.6,28.2,28.2l0,0c0,15.6-12.6,28.2-28.2,28.2l0,0C12.6,56.3,0,43.7,0,28.2l0,0
	C0,12.6,12.6,0,28.2,0z"/>
<path class="st1" d="M44.8,42.1l-6.3-7.8c0.2-0.1,0.3-0.1,0.5-0.2c1.7-0.7,3.2-1.9,4.2-3.5c0.9-1.4,1.4-2.9,1.4-4.5
	c0-0.2,0-0.3,0-0.5v-1.4c0,0,0-0.1,0-0.1c0-1.8-0.5-3.6-1.5-5.2c-1-1.5-2.5-2.8-4.2-3.5c-2-0.9-4.2-1.3-6.4-1.2H13.3v27.8h7.5v-6.7
	h9.8l5.5,6.7H44.8z M27.6,28.6h-6.8v-7.5h11.4c0.8,0,1.6,0.1,2.3,0.4c1.2,0.5,2,1.7,2,3.1v0.5c0,0.1,0,0.1,0,0.2
	c0,0.6-0.2,1.1-0.5,1.6c-0.4,0.6-0.9,1-1.5,1.3c-0.7,0.3-1.5,0.5-2.3,0.4L27.6,28.6L27.6,28.6z"/>
</svg>
