<?xml version="1.0" encoding="utf-8"?>
<!-- Generator: Adobe Illustrator 24.0.0, SVG Export Plug-In . SVG Version: 6.00 Build 0)  -->
<svg width="32" height="32" version="1.1" id="spireng_logo" xmlns="http://www.w3.org/2000/svg" xmlns:xlink="http://www.w3.org/1999/xlink" x="0px"
	 y="0px" viewBox="0 0 32 32" style="enable-background:new 0 0 32 32;" xml:space="preserve">
<style type="text/css">
	.st0{fill:#FFFFFF;}
</style>
<path class="st0" d="M16,1.2L16,1.2c-8.9,0-16,7.2-16,16l0,0c0,5.6,2.9,10.6,7.3,13.4C3.5,26.5,2.8,21.1,5,17.7
	c1.6-2.4,4.3-3.3,5.8-3.6c0.4-0.1,0.6-0.5,0.6-0.9l-0.2-1c0-0.2,0-0.3,0-0.4L12.6,7c0.1-0.3,0.2-0.6,0.5-0.8C13.5,5.8,14.5,5,15.9,5
	l0,0l0,0l0,0l0,0c1.4,0,2.4,0.7,2.9,1.3C19,6.5,19.2,6.7,19.3,7l1.4,4.8c0,0.2,0.1,0.3,0,0.4l-0.2,1c-0.1,0.4,0.2,0.8,0.6,0.9
	c1.4,0.3,4.2,1.2,5.8,3.7c1.7,2.6,1.2,8.8-2.5,13C29,28,31.9,23,31.9,17.2l0,0C31.9,8.4,24.8,1.2,16,1.2z"/>
<path class="st0" d="M15.4,8.9c-0.4-0.2-1-0.2-1.6,0s-1,0.7-1,0.8c-0.2,0.2-0.4,0.7-0.4,1.4c0,0.6,0.2,0.9,0.3,1.1
	c0,0.1,0.1,0.1,0.1,0.1c0.2,0.2,0.4,0.5,0.6,0.7c0.3,0.3,0.7,0.8,1.1,1.3c0.6,0.9,1,1.6,1.3,2.5l0,0l0,0l0,0l0,0l0,0l0,0l0,0l0,0
	l0,0l0,0l0,0l0,0l0,0c0.2-0.6,0.6-1.5,1.3-2.5c0.4-0.6,0.8-1,1.1-1.3c0.2-0.2,0.5-0.6,0.6-0.7c0-0.1,0.1-0.1,0.1-0.1
	c0.2-0.2,0.3-0.6,0.3-1.1c0.1-0.7-0.2-1.3-0.4-1.4c-0.1-0.2-0.4-0.6-1-0.8c-0.6-0.2-1.2-0.2-1.6,0C16.1,9,15.9,9,15.8,9l0,0h-0.1
	l0,0C15.8,9,15.6,9,15.4,8.9z"/>
<path class="st0" d="M23.8,29.7H7.9v-8.6c0-1,0.7-1.7,1.7-1.7h12.5c1,0,1.7,0.7,1.7,1.7C23.8,21.1,23.8,29.7,23.8,29.7z"/>
</svg>
