<?xml version="1.0" encoding="utf-8"?>
<!-- Generator: Adobe Illustrator 28.3.0, SVG Export Plug-In . SVG Version: 6.00 Build 0)  -->
<svg version="1.1" id="spireng_logo" xmlns="http://www.w3.org/2000/svg" xmlns:xlink="http://www.w3.org/1999/xlink" x="0px"
	 y="0px" viewBox="0 0 32 30" style="enable-background:new 0 0 32 30;" xml:space="preserve">
<style type="text/css">
	.st0{fill:#ED0132;}
</style>
<g id="part2">
	<g>
		<path class="st0" d="M29.8,27.6c-0.5-0.1-1-0.2-1.6-0.2V30C28.9,29.9,29.5,28.9,29.8,27.6z"/>
		<path class="st0" d="M28,25.3C28,25.3,27.9,25.3,28,25.3c-0.6,0-1.1-0.1-1.6-0.2c-0.1,0.4-0.1,0.7-0.1,1.1c0,0.4,0,0.8,0.1,1.2
			c0.5-0.2,1.1-0.2,1.6-0.3L28,25.3L28,25.3z"/>
		<path class="st0" d="M28,30v-2.6c-0.5,0-1,0.1-1.6,0.3C26.7,29,27.3,29.9,28,30z"/>
		<path class="st0" d="M26.4,24.8c0.5,0.1,1,0.2,1.6,0.2v-2.6C27.2,22.5,26.6,23.5,26.4,24.8z"/>
		<path class="st0" d="M28.2,22.4V25c0.5,0,1-0.1,1.6-0.3C29.5,23.4,28.9,22.5,28.2,22.4z"/>
		<path class="st0" d="M28.2,27.1c0.5,0,1.1,0.1,1.6,0.2c0.1-0.4,0.1-0.7,0.1-1.1c0-0.4,0-0.8-0.1-1.2c-0.5,0.2-1.1,0.2-1.6,0.3
			L28.2,27.1L28.2,27.1z"/>
		<path class="st0" d="M31.5,24.3c-0.5,0.3-1,0.5-1.5,0.6c0.1,0.4,0.1,0.8,0.1,1.3c0,0.4,0,0.8-0.1,1.2c0.5,0.2,1,0.4,1.5,0.7
			C32.2,26.9,32.1,25.4,31.5,24.3L31.5,24.3z"/>
		<path class="st0" d="M28.6,30.1c0.1,0,0.2,0,0.3,0c1-0.2,1.9-0.8,2.5-1.7c0,0,0,0,0,0c-0.4-0.3-0.9-0.5-1.4-0.6
			C29.8,28.8,29.3,29.7,28.6,30.1L28.6,30.1z"/>
		<path class="st0" d="M26.2,27.7c-0.5,0.1-0.9,0.3-1.4,0.6c0.3,0.5,0.7,0.9,1.2,1.2c0.5,0.3,1,0.5,1.5,0.6
			C26.9,29.7,26.4,28.8,26.2,27.7z"/>
		<path class="st0" d="M26,26.2c0-0.4,0-0.8,0.1-1.2c-0.5-0.2-1-0.4-1.5-0.7c-0.7,1.2-0.6,2.6,0,3.8c0.5-0.3,1-0.5,1.5-0.6
			C26.1,27.1,26,26.7,26,26.2L26,26.2z"/>
		<path class="st0" d="M27.5,22.3c-0.1,0-0.2,0-0.3,0c-1,0.2-1.9,0.8-2.5,1.7c0,0,0,0,0,0c0.4,0.3,0.9,0.5,1.4,0.6
			C26.4,23.6,26.9,22.7,27.5,22.3L27.5,22.3z"/>
		<path class="st0" d="M30,24.7c0.5-0.1,0.9-0.3,1.4-0.6c-0.3-0.5-0.7-0.9-1.2-1.2c-0.5-0.3-1-0.5-1.5-0.6
			C29.3,22.7,29.8,23.6,30,24.7z"/>
	</g>
</g>
<path id="part1" class="st0" d="M23.1,22c-2-1.1-3.5-2.7-4.5-4.7c1.6-1.8,2.5-4.2,2.5-6.8c0-1.6-0.4-3.2-1-4.6
	c-0.3-0.6-0.6-1.2-1-1.7c-0.3-0.4-0.6-0.8-1-1.2c-1.9-1.9-4.5-3.1-7.5-3.1S5,1.1,3.1,3c-0.4,0.4-0.7,0.7-1,1.2C0.8,5.9,0,8.1,0,10.5
	c0,4.1,2.3,7.6,5.7,9.4c0.8-1.1,1.4-2.3,1.7-3.6c-2-1.1-3.4-3.2-3.4-5.7C4,9,4.5,7.7,5.2,6.7c0.2-0.3,0.4-0.6,0.7-0.8
	c1.2-1.2,2.8-1.9,4.6-1.9s3.4,0.7,4.6,1.9c0.3,0.3,0.5,0.5,0.7,0.8c0.8,1.1,1.2,2.4,1.2,3.8c0,1.8-0.7,3.4-1.9,4.6
	c-0.4,0.4-0.9,0.8-1.5,1.1c0.3,1.3,0.9,2.6,1.7,3.6c1.4,1.9,3.5,3.3,5.8,3.9l0,0c0.2,0.1,0.5,0.1,0.7,0.2c0.1-0.2,0.1-0.3,0.2-0.5
	c0,0,0,0,0,0c0-0.1,0.1-0.1,0.1-0.2c0,0,0,0,0,0c0-0.1,0.1-0.1,0.1-0.2c0,0,0,0,0,0c0-0.1,0.1-0.1,0.1-0.2c0,0,0,0,0,0
	c0,0,0.1-0.1,0.1-0.2c0,0,0,0,0-0.1c0,0,0.1-0.1,0.1-0.1c0,0,0,0,0-0.1c0,0,0-0.1,0.1-0.1c0,0,0,0,0,0C23,22.1,23.1,22.1,23.1,22
	L23.1,22z M22.2,23L22.2,23L22.2,23z"/>
</svg>
