<?xml version="1.0" encoding="utf-8"?>
<!-- Generator: Adobe Illustrator 24.0.0, SVG Export Plug-In . SVG Version: 6.00 Build 0)  -->
<svg width="32" height="32" version="1.1" id="vk" xmlns="http://www.w3.org/2000/svg" xmlns:xlink="http://www.w3.org/1999/xlink" x="0px" y="0px"
	 viewBox="0 0 12.4 12.4" style="enable-background:new 0 0 12.4 12.4;" xml:space="preserve">
<style type="text/css">
	.st0{fill:#4D76A4;}
	.st1{fill:#FFFFFF;}
</style>
<g id="вк">
	<g id="g3257">
		<circle class="st0" cx="6.2" cy="6.2" r="6.2"/>
		<path id="path2442" class="st1" d="M6.1,8.7h0.5c0.1,0,0.2,0,0.2-0.1c0-0.1,0.1-0.1,0.1-0.2c0,0,0-0.7,0.3-0.8s0.7,0.7,1.1,1
			c0.2,0.1,0.4,0.2,0.6,0.2H10c0,0,0.6,0,0.3-0.5c-0.2-0.4-0.5-0.7-0.8-1C8.8,6.5,8.9,6.6,9.7,5.5c0.5-0.7,0.7-1.1,0.7-1.3
			S10,4.1,10,4.1H8.7c-0.1,0-0.1,0-0.2,0c0,0-0.1,0.1-0.1,0.1c-0.1,0.3-0.3,0.7-0.5,1c-0.6,1-0.8,1-0.9,1S6.9,5.7,6.9,5.4
			C6.9,4.4,7,4,6.6,3.9C6.4,3.9,6.2,3.9,6,3.9C5.7,3.8,5.3,3.9,5,4C4.8,4.1,4.7,4.2,4.8,4.2c0.1,0,0.3,0.1,0.4,0.2
			C5.2,4.6,5.3,4.8,5.3,5c0,0,0.1,1.1-0.2,1.2s-0.4-0.1-0.9-1C4,4.9,3.9,4.6,3.7,4.3c0-0.1-0.1-0.1-0.1-0.1c-0.1,0-0.1-0.1-0.2-0.1
			H2.2c0,0-0.2,0-0.3,0.1s0,0.2,0,0.2c0.5,1.2,1.2,2.3,2,3.3C4.5,8.3,5.3,8.7,6.1,8.7"/>
	</g>
</g>
</svg>
